<svg width="31" height="31" viewBox="0 0 31 31" fill="none" xmlns="http://www.w3.org/2000/svg">
<circle cx="15.5" cy="15.5" r="15.5" fill="#5B8E19"/>
<g clip-path="url(#clip0_1_3317)">
<path d="M14.0077 8.58333L12.1744 10.4167H8.66536V21.4167H23.332V10.4167H19.823L17.9897 8.58333H14.0077ZM13.2487 6.75H18.7487L20.582 8.58333H24.2487C24.4918 8.58333 24.725 8.67991 24.8969 8.85182C25.0688 9.02373 25.1654 9.25688 25.1654 9.5V22.3333C25.1654 22.5764 25.0688 22.8096 24.8969 22.9815C24.725 23.1534 24.4918 23.25 24.2487 23.25H7.7487C7.50558 23.25 7.27242 23.1534 7.10052 22.9815C6.92861 22.8096 6.83203 22.5764 6.83203 22.3333V9.5C6.83203 9.25688 6.92861 9.02373 7.10052 8.85182C7.27242 8.67991 7.50558 8.58333 7.7487 8.58333H11.4154L13.2487 6.75ZM15.9987 20.5C14.6616 20.5 13.3792 19.9688 12.4337 19.0233C11.4882 18.0778 10.957 16.7955 10.957 15.4583C10.957 14.1212 11.4882 12.8388 12.4337 11.8933C13.3792 10.9478 14.6616 10.4167 15.9987 10.4167C17.3358 10.4167 18.6182 10.9478 19.5637 11.8933C20.5092 12.8388 21.0404 14.1212 21.0404 15.4583C21.0404 16.7955 20.5092 18.0778 19.5637 19.0233C18.6182 19.9688 17.3358 20.5 15.9987 20.5ZM15.9987 18.6667C16.8496 18.6667 17.6657 18.3286 18.2673 17.727C18.869 17.1253 19.207 16.3092 19.207 15.4583C19.207 14.6074 18.869 13.7914 18.2673 13.1897C17.6657 12.588 16.8496 12.25 15.9987 12.25C15.1478 12.25 14.3317 12.588 13.7301 13.1897C13.1284 13.7914 12.7904 14.6074 12.7904 15.4583C12.7904 16.3092 13.1284 17.1253 13.7301 17.727C14.3317 18.3286 15.1478 18.6667 15.9987 18.6667Z" fill="#F2F2F2"/>
</g>
<defs>
<clipPath id="clip0_1_3317">
<rect width="22" height="22" fill="white" transform="translate(5 4)"/>
</clipPath>
</defs>
</svg>
