<svg width="22" height="22" viewBox="0 0 22 22" fill="none" xmlns="http://www.w3.org/2000/svg">
<path d="M1.55964 2.81455C0.807692 3.0165 0.197535 3.65244 0.0428479 4.3958C0.0127698 4.54619 -0.0001208 5.26807 0.00847295 6.56143C0.0213636 8.44346 0.0256604 8.50361 0.111598 8.61963C0.279176 8.84307 0.399489 8.90322 0.786207 8.94189C1.38777 9.00205 1.80457 9.19971 2.18269 9.59932C2.92605 10.3813 2.92605 11.6188 2.18269 12.4009C1.80457 12.8005 1.38777 12.9981 0.786207 13.0583C0.399489 13.097 0.279176 13.1571 0.111598 13.3806C0.0256604 13.4966 0.0213636 13.5567 0.00847295 15.4388C-0.0001208 16.7321 0.0127698 17.454 0.0428479 17.6044C0.201832 18.3563 0.811988 18.988 1.57683 19.1856C1.95066 19.2845 20.0491 19.2845 20.4229 19.1856C21.1878 18.988 21.7979 18.3563 21.9569 17.6044C21.987 17.454 21.9999 16.7321 21.9913 15.4388C21.9784 13.5567 21.9741 13.4966 21.8882 13.3806C21.7249 13.1571 21.6003 13.097 21.2307 13.0583C20.6464 13.0024 20.3026 12.8521 19.903 12.4868C19.0393 11.6833 19.0393 10.3169 19.903 9.51338C20.3026 9.14814 20.6464 8.99775 21.2307 8.94189C21.6003 8.90322 21.7249 8.84307 21.8882 8.61963C21.9741 8.50361 21.9784 8.44346 21.9913 6.56143C21.9999 5.26807 21.987 4.54619 21.9569 4.3958C21.7979 3.64385 21.1878 3.01221 20.4229 2.81455C20.062 2.72002 1.90769 2.72432 1.55964 2.81455ZM20.3069 4.23682C20.3714 4.28408 20.4659 4.37861 20.5132 4.44307C20.5991 4.55478 20.6034 4.62354 20.6163 6.10596C20.6292 7.5626 20.6249 7.64853 20.5518 7.64853C20.3885 7.65283 19.7268 7.94072 19.4432 8.12978C18.6397 8.6626 18.1155 9.44893 17.935 10.3899C17.63 11.9841 18.5624 13.6212 20.1093 14.2099C20.3112 14.2872 20.5089 14.3474 20.5518 14.3517C20.6249 14.3517 20.6292 14.4376 20.6163 15.8942C20.6034 17.3767 20.5991 17.4454 20.5132 17.5571C20.4659 17.6216 20.3714 17.7161 20.3069 17.7634L20.1909 17.8536H10.9999H1.80886L1.69285 17.7634C1.62839 17.7161 1.53386 17.6216 1.4866 17.5571C1.40066 17.4454 1.39636 17.3767 1.38347 15.9028L1.37058 14.3688L1.55964 14.3216C2.13543 14.1669 2.67254 13.8575 3.08933 13.445C3.90144 12.6372 4.27097 11.4813 4.06472 10.3899C3.81121 9.0708 2.84011 8.02236 1.55964 7.67861L1.37488 7.63135V6.16182C1.37488 4.63643 1.38347 4.5376 1.55964 4.34424C1.77019 4.1165 1.21589 4.12939 11.0514 4.13799L20.1909 4.14658L20.3069 4.23682Z" fill="#EB5757"/>
<path d="M12.3363 5.47437C10.7551 9.68101 8.33592 16.1478 8.32733 16.1951C8.31014 16.2638 9.53475 16.7408 9.58202 16.6849C9.5992 16.6677 10.523 14.2228 11.6359 11.258C12.7488 8.29312 13.6683 5.83531 13.6812 5.80093C13.7027 5.74937 13.5652 5.68062 13.0625 5.49585L12.418 5.25523L12.3363 5.47437Z" fill="#EB5757"/>
<path d="M7.41201 7.13728C6.58271 7.25759 5.84795 8.00954 5.71474 8.86892C5.56435 9.84861 6.1874 10.8369 7.13701 11.1334C7.44638 11.2279 7.95771 11.2408 8.27138 11.1549C9.16943 10.9142 9.79678 10.1021 9.79678 9.17829C9.79248 7.89783 8.68818 6.95251 7.41201 7.13728ZM8.09951 8.58962C8.16826 8.62829 8.27138 8.73142 8.32724 8.81306C8.41318 8.93337 8.42607 9.00212 8.41318 9.19978C8.3831 9.60369 8.12959 9.84001 7.72138 9.84001C7.47217 9.84001 7.27021 9.70251 7.14131 9.4447C7.00381 9.174 7.03818 8.95056 7.24873 8.71853C7.48506 8.46072 7.79443 8.41345 8.09951 8.58962Z" fill="#EB5757"/>
<path d="M14.3424 11.4342C13.8654 11.5459 13.2682 12.0143 13.049 12.444C12.8514 12.8307 12.7912 13.1229 12.8127 13.5611C12.8299 13.9049 12.8557 14.0037 12.9889 14.283C13.4959 15.3572 14.7076 15.7869 15.7604 15.2713C16.551 14.8846 17.0237 13.9865 16.8862 13.1315C16.7615 12.358 16.1987 11.6963 15.4639 11.4686C15.1846 11.3826 14.6346 11.3654 14.3424 11.4342ZM15.2147 12.8607C15.4252 12.9982 15.5713 13.3119 15.5326 13.5397C15.4682 13.9178 15.0557 14.1885 14.6904 14.094C14.2565 13.9779 14.0545 13.5311 14.2479 13.1186C14.4112 12.7791 14.8967 12.6502 15.2147 12.8607Z" fill="#EB5757"/>
</svg>
