<svg width="51" height="51" viewBox="0 0 51 51" fill="none" xmlns="http://www.w3.org/2000/svg">
<g clip-path="url(#clip0_1_1040)">
<path d="M6.375 6.375H44.625C45.1886 6.375 45.7291 6.59888 46.1276 6.9974C46.5261 7.39591 46.75 7.93641 46.75 8.5V42.5C46.75 43.0636 46.5261 43.6041 46.1276 44.0026C45.7291 44.4011 45.1886 44.625 44.625 44.625H6.375C5.81141 44.625 5.27091 44.4011 4.8724 44.0026C4.47388 43.6041 4.25 43.0636 4.25 42.5V8.5C4.25 7.93641 4.47388 7.39591 4.8724 6.9974C5.27091 6.59888 5.81141 6.375 6.375 6.375ZM42.5 29.75H35.241C34.4142 31.6458 33.0521 33.2591 31.3218 34.3922C29.5916 35.5252 27.5683 36.1287 25.5 36.1287C23.4317 36.1287 21.4084 35.5252 19.6782 34.3922C17.9479 33.2591 16.5858 31.6458 15.759 29.75H8.5V40.375H42.5V29.75ZM42.5 25.5V10.625H8.5V25.5H19.125C19.125 27.1908 19.7966 28.8123 20.9922 30.0078C22.1877 31.2034 23.8092 31.875 25.5 31.875C27.1908 31.875 28.8123 31.2034 30.0078 30.0078C31.2034 28.8123 31.875 27.1908 31.875 25.5H42.5Z" fill="#BDBDBD"/>
</g>
<defs>
<clipPath id="clip0_1_1040">
<rect width="51" height="51" fill="white"/>
</clipPath>
</defs>
</svg>
