<svg width="111" height="43" viewBox="0 0 111 43" fill="none" xmlns="http://www.w3.org/2000/svg">
<rect x="1" y="1" width="109" height="41" rx="20.5" fill="white" stroke="#5B8E19" stroke-width="2"/>
<g clip-path="url(#clip0_1_1281)">
<path d="M76 28H73C72.7348 28 72.4804 27.8946 72.2929 27.7071C72.1054 27.5196 72 27.2652 72 27V17C72 16.7348 72.1054 16.4804 72.2929 16.2929C72.4804 16.1054 72.7348 16 73 16H76V12C76 11.7348 76.1054 11.4804 76.2929 11.2929C76.4804 11.1054 76.7348 11 77 11H87C87.2652 11 87.5196 11.1054 87.7071 11.2929C87.8946 11.4804 88 11.7348 88 12V16H91C91.2652 16 91.5196 16.1054 91.7071 16.2929C91.8946 16.4804 92 16.7348 92 17V27C92 27.2652 91.8946 27.5196 91.7071 27.7071C91.5196 27.8946 91.2652 28 91 28H88V30C88 30.2652 87.8946 30.5196 87.7071 30.7071C87.5196 30.8946 87.2652 31 87 31H77C76.7348 31 76.4804 30.8946 76.2929 30.7071C76.1054 30.5196 76 30.2652 76 30V28ZM76 26V25C76 24.7348 76.1054 24.4804 76.2929 24.2929C76.4804 24.1054 76.7348 24 77 24H87C87.2652 24 87.5196 24.1054 87.7071 24.2929C87.8946 24.4804 88 24.7348 88 25V26H90V18H74V26H76ZM78 13V16H86V13H78ZM78 26V29H86V26H78ZM75 19H78V21H75V19Z" fill="#5B8E19"/>
</g>
<path d="M27.0006 25.02C27.3073 25.02 27.514 25.08 27.6206 25.2C27.7406 25.3067 27.8006 25.4667 27.8006 25.68C27.8006 26.0533 27.7006 26.3667 27.5006 26.62C27.3006 26.8733 26.9673 27 26.5006 27C25.7006 27 25.0273 26.8867 24.4806 26.66C23.9473 26.4333 23.5406 26.0533 23.2606 25.52C22.7673 25.68 22.2206 25.76 21.6206 25.76C20.9273 25.76 20.3206 25.6667 19.8006 25.48C19.2806 25.28 18.8806 25 18.6006 24.64C18.3206 24.28 18.1806 23.86 18.1806 23.38C18.1806 22.8467 18.3606 22.3067 18.7206 21.76C19.0806 21.2 19.614 20.68 20.3206 20.2C21.0273 19.72 21.874 19.32 22.8606 19V18.06L24.6806 17.3L24.8406 17.34V23.46C24.8406 23.9 24.9073 24.2333 25.0406 24.46C25.1873 24.6733 25.4073 24.82 25.7006 24.9C26.0073 24.98 26.4406 25.02 27.0006 25.02ZM21.8006 23.84C22.134 23.84 22.4873 23.8067 22.8606 23.74V23.46V20.94C22.0473 21.1667 21.3606 21.46 20.8006 21.82C20.254 22.1667 19.9206 22.5267 19.8006 22.9C19.9073 23.1933 20.154 23.4267 20.5406 23.6C20.9406 23.76 21.3606 23.84 21.8006 23.84ZM20.9406 15.96L19.1406 14.7L20.2406 13.02L22.0406 14.26L20.9406 15.96ZM23.7606 15.96L21.9606 14.7L23.0806 13.02L24.8806 14.26L23.7606 15.96ZM36.0869 24.72L35.4869 26.5C34.6469 26.66 33.5335 26.7867 32.1469 26.88C30.7602 26.96 28.8935 27 26.5469 27L26.9869 25.02H28.8669C28.4002 24.2733 28.1669 23.5067 28.1669 22.72C28.1669 21.9867 28.3402 21.3533 28.6869 20.82C29.0335 20.2867 29.5069 19.88 30.1069 19.6C30.7202 19.32 31.4069 19.18 32.1669 19.18C32.6202 19.18 33.1002 19.24 33.6069 19.36C34.1135 19.4667 34.5602 19.6133 34.9469 19.8L34.7069 21.52L34.6269 21.58C33.7869 21.26 33.0469 21.1 32.4069 21.1C31.7669 21.1 31.2669 21.2533 30.9069 21.56C30.5602 21.8533 30.3869 22.28 30.3869 22.84C30.3869 23.1733 30.4669 23.5267 30.6269 23.9C30.7869 24.2733 31.0202 24.6267 31.3269 24.96C33.0869 24.92 34.6335 24.8067 35.9669 24.62L36.0869 24.72ZM41.9756 27C40.7756 27 39.8556 26.72 39.2156 26.16C38.589 25.6 38.2756 24.6667 38.2756 23.36V13.74L40.0956 13.26L40.2556 13.36V23.18C40.2556 23.6733 40.3223 24.0533 40.4556 24.32C40.6023 24.5733 40.829 24.7533 41.1356 24.86C41.4556 24.9667 41.889 25.02 42.4356 25.02C42.729 25.02 42.9356 25.08 43.0556 25.2C43.1756 25.3067 43.2356 25.4667 43.2356 25.68C43.2356 26.0667 43.1356 26.3867 42.9356 26.64C42.749 26.88 42.429 27 41.9756 27ZM48.9166 25.02C49.2099 25.02 49.4166 25.08 49.5366 25.2C49.6566 25.3067 49.7166 25.4667 49.7166 25.68C49.7166 26.0533 49.6232 26.3667 49.4366 26.62C49.2499 26.8733 48.9232 27 48.4566 27C47.9499 27 47.4232 26.92 46.8766 26.76C46.3299 26.6 45.8632 26.36 45.4766 26.04C45.1166 26.36 44.6832 26.6 44.1766 26.76C43.6699 26.92 43.0699 27 42.3766 27H41.9766L42.4366 25.02H42.8366C43.6366 25.02 44.1832 24.9133 44.4766 24.7C44.5966 24.4867 44.7166 24.1533 44.8366 23.7C44.9699 23.2333 45.1299 22.5867 45.3166 21.76L47.3166 21.28L47.5166 21.42C47.3566 22.1133 47.2032 22.7067 47.0566 23.2C46.9099 23.6933 46.7432 24.1333 46.5566 24.52C47.1966 24.8533 47.9832 25.02 48.9166 25.02ZM45.8766 31.5L44.0166 30.2L45.1766 28.5L47.0366 29.76L45.8766 31.5ZM56.9809 19.96C57.5543 19.96 58.0676 20.1267 58.5209 20.46C58.9743 20.78 59.3276 21.2 59.5809 21.72C59.8476 22.2267 59.9809 22.7533 59.9809 23.3C59.9809 23.86 59.8609 24.38 59.6209 24.86C59.3809 25.3267 59.0809 25.7133 58.7209 26.02C58.3743 26.3 57.9743 26.5133 57.5209 26.66C57.0676 26.7933 56.5276 26.8867 55.9009 26.94C55.2743 26.98 54.4543 27 53.4409 27H48.4609L48.9209 25.02H49.7409L50.6209 24.18V13.74L52.4409 13.26L52.5809 13.36L52.5609 22.4C53.4943 21.5733 54.3143 20.96 55.0209 20.56C55.7409 20.16 56.3943 19.96 56.9809 19.96ZM58.0209 24.66C58.1009 24.5267 58.1609 24.3733 58.2009 24.2C58.2543 24.0133 58.2809 23.82 58.2809 23.62C58.2809 23.3533 58.2143 23.0867 58.0809 22.82C57.9476 22.54 57.7609 22.3133 57.5209 22.14C57.2943 21.9533 57.0343 21.86 56.7409 21.86C56.2209 21.86 55.5676 22.1333 54.7809 22.68C53.9943 23.2133 53.0543 23.9933 51.9609 25.02H53.5809C54.5809 25.02 55.3543 25.0133 55.9009 25C56.4609 24.9733 56.9009 24.94 57.2209 24.9C57.5409 24.8467 57.8076 24.7667 58.0209 24.66Z" fill="#5B8E19"/>
<defs>
<clipPath id="clip0_1_1281">
<rect width="24" height="24" fill="white" transform="translate(70 9)"/>
</clipPath>
</defs>
</svg>
