<svg width="45" height="45" viewBox="0 0 45 45" fill="none" xmlns="http://www.w3.org/2000/svg">
<circle cx="22.5" cy="22.5" r="22" fill="white" stroke="#828282"/>
<g clip-path="url(#clip0_1_1367)">
<path d="M23.001 16.529C25.35 14.42 28.98 14.49 31.243 16.757C33.505 19.025 33.583 22.637 31.479 24.993L22.999 33.485L14.521 24.993C12.417 22.637 12.496 19.019 14.757 16.757C17.022 14.493 20.645 14.417 23.001 16.529ZM29.827 18.17C28.327 16.668 25.907 16.607 24.337 18.017L23.002 19.215L21.666 18.018C20.091 16.606 17.676 16.668 16.172 18.172C14.682 19.662 14.607 22.047 15.98 23.623L23 30.654L30.02 23.624C31.394 22.047 31.319 19.665 29.827 18.17Z" fill="#828282"/>
</g>
<defs>
<clipPath id="clip0_1_1367">
<rect width="24" height="24" fill="white" transform="translate(11 12)"/>
</clipPath>
</defs>
</svg>
