<svg width="68" height="34" viewBox="0 0 68 34" fill="none" xmlns="http://www.w3.org/2000/svg">
<g clip-path="url(#clip0_1_1211)">
<path d="M55.9999 23.26L48.9469 27.208L50.5219 19.28L44.5869 13.792L52.6139 12.84L55.9999 5.5L59.3859 12.84L67.4129 13.792L61.4779 19.28L63.0529 27.208L55.9999 23.26ZM55.9999 20.968L60.2469 23.345L59.2979 18.572L62.8709 15.267L58.0379 14.694L55.9999 10.275L53.9619 14.695L49.1289 15.267L52.7019 18.572L51.7529 23.345L55.9999 20.968Z" fill="#4F4F4F"/>
</g>
<path d="M12.8322 21.44C13.1122 21.44 13.3189 21.4867 13.4522 21.58C13.5855 21.66 13.6522 21.7933 13.6522 21.98C13.6522 22.2867 13.5389 22.5333 13.3122 22.72C13.0855 22.9067 12.7855 23 12.4122 23C11.9589 23 11.5589 22.94 11.2122 22.82C10.8789 22.6867 10.5722 22.4867 10.2922 22.22C10.0655 22.5667 9.81885 22.8267 9.55219 23C9.29885 23.16 9.01885 23.24 8.71219 23.24C7.29885 23.24 5.79219 22.26 4.19219 20.3C3.89885 20.6067 3.66552 20.8867 3.49219 21.14C3.43885 21.34 3.41219 21.7 3.41219 22.22C3.41219 23.02 3.47219 24.08 3.59219 25.4C3.72552 26.7333 3.90552 28.1333 4.13219 29.6L2.83219 30.24L2.67219 30.14C2.15219 26.6067 1.89219 24.2733 1.89219 23.14C1.89219 22.3 1.98552 21.6067 2.17219 21.06C2.37219 20.5133 2.71885 19.9467 3.21219 19.36C3.65219 18.84 4.13219 18.3667 4.65219 17.94C5.18552 17.5133 5.70552 17.18 6.21219 16.94C6.73219 16.6867 7.18552 16.56 7.57219 16.56C7.94552 16.56 8.27219 16.6533 8.55219 16.84C8.84552 17.0267 9.13219 17.34 9.41219 17.78C9.70552 18.2067 10.0589 18.8333 10.4722 19.66C10.7255 20.18 10.9455 20.5667 11.1322 20.82C11.3322 21.06 11.5522 21.2267 11.7922 21.32C12.0455 21.4 12.3922 21.44 12.8322 21.44ZM8.47219 21.7C8.65885 21.7 8.83885 21.6533 9.01219 21.56C9.19885 21.4533 9.37219 21.3067 9.53219 21.12C9.49219 21.0667 9.44552 20.9733 9.39219 20.84C8.96552 19.88 8.59219 19.1867 8.27219 18.76C7.96552 18.3333 7.68552 18.12 7.43219 18.12C7.20552 18.12 6.89219 18.2333 6.49219 18.46C6.09219 18.6733 5.67219 18.96 5.23219 19.32C5.83219 20.0667 6.41885 20.6533 6.99219 21.08C7.56552 21.4933 8.05885 21.7 8.47219 21.7ZM19.597 21.44C19.9037 21.44 20.1104 21.4867 20.217 21.58C20.337 21.6733 20.397 21.8067 20.397 21.98C20.397 22.2333 20.3104 22.4667 20.137 22.68C19.9637 22.8933 19.6504 23 19.197 23C17.757 23 16.6637 22.68 15.917 22.04C15.597 22.3733 15.2104 22.62 14.757 22.78C14.3037 22.9267 13.7637 23 13.137 23H12.457L12.857 21.44H13.457C13.777 21.44 14.0704 21.4067 14.337 21.34C14.6037 21.2733 14.817 21.18 14.977 21.06C15.1104 20.8467 15.2504 20.5 15.397 20.02C15.557 19.54 15.737 18.8733 15.937 18.02L17.477 17.64L17.677 17.76C17.5304 18.44 17.377 19.0267 17.217 19.52C17.0704 20.0133 16.9104 20.4467 16.737 20.82C17.0304 21.0067 17.397 21.16 17.837 21.28C18.277 21.3867 18.8637 21.44 19.597 21.44ZM14.817 27.18L13.197 26.04L14.177 24.54L15.797 25.64L14.817 27.18ZM17.677 27.18L16.057 26.04L17.077 24.54L18.697 25.64L17.677 27.18ZM28.4353 21.44C28.7553 21.44 28.9686 21.4867 29.0753 21.58C29.1953 21.6733 29.2553 21.8067 29.2553 21.98C29.2553 22.2333 29.162 22.4667 28.9753 22.68C28.802 22.8933 28.4886 23 28.0353 23H26.7753C26.3086 23 25.8153 22.9533 25.2953 22.86C24.7886 22.7533 24.2953 22.6133 23.8153 22.44C22.7886 22.8133 21.5886 23 20.2153 23H19.1953L19.5953 21.44H21.4953C21.7353 21.44 21.9086 21.4333 22.0153 21.42C21.6553 21.1133 21.3753 20.78 21.1753 20.42C20.9753 20.0467 20.8753 19.6467 20.8753 19.22C20.8753 18.6467 21.022 18.08 21.3153 17.52C21.622 16.96 22.022 16.5 22.5153 16.14C23.0086 15.78 23.522 15.6 24.0553 15.6C24.5086 15.6 24.942 15.7533 25.3553 16.06C25.7686 16.3667 26.102 16.76 26.3553 17.24C26.6086 17.7067 26.7353 18.18 26.7353 18.66C26.7353 19.7533 26.3686 20.6467 25.6353 21.34C26.1286 21.4067 26.602 21.44 27.0553 21.44H28.4353ZM22.1753 18.96C22.1753 19.3333 22.3286 19.6933 22.6353 20.04C22.942 20.3733 23.3686 20.6533 23.9153 20.88C24.382 20.64 24.7486 20.3467 25.0153 20C25.282 19.6533 25.4153 19.28 25.4153 18.88C25.4153 18.6 25.3353 18.3267 25.1753 18.06C25.0153 17.7933 24.8086 17.58 24.5553 17.42C24.3153 17.2467 24.0753 17.16 23.8353 17.16C23.582 17.16 23.322 17.2533 23.0553 17.44C22.802 17.6133 22.5886 17.84 22.4153 18.12C22.2553 18.4 22.1753 18.68 22.1753 18.96ZM22.8753 13.32L21.2553 12.18L22.2353 10.66L23.8553 11.78L22.8753 13.32ZM25.6553 13.32L24.0353 12.18L25.0553 10.66L26.6753 11.78L25.6553 13.32ZM28.4625 21.44H29.0425C30.1092 21.44 30.8092 21.36 31.1425 21.2C31.2358 20.9733 31.2825 20.7067 31.2825 20.4C31.2825 19.9867 31.1958 19.5333 31.0225 19.04C30.8625 18.5467 30.6292 17.9667 30.3225 17.3L31.5825 16.28H31.7625C32.0825 17.0133 32.3358 17.7 32.5225 18.34C32.7092 18.9667 32.8025 19.48 32.8025 19.88C32.8025 20.32 32.7158 20.7667 32.5425 21.22C32.3692 21.6733 32.1292 22.04 31.8225 22.32C31.5558 22.5733 31.1958 22.7533 30.7425 22.86C30.2892 22.9533 29.5958 23 28.6625 23H28.0625L28.4625 21.44ZM30.0825 14.04L28.4625 12.9L29.4425 11.38L31.0625 12.5L30.0825 14.04ZM32.8625 14.04L31.2425 12.9L32.2625 11.38L33.8825 12.5L32.8625 14.04Z" fill="#333333"/>
<defs>
<clipPath id="clip0_1_1211">
<rect width="24" height="24" fill="white" transform="translate(44 5)"/>
</clipPath>
</defs>
</svg>
