<svg width="178" height="182" viewBox="0 0 178 182" fill="none" xmlns="http://www.w3.org/2000/svg">
<circle cx="89.5" cy="58.5" r="58.5" fill="#F6F6F6"/>
<path d="M6.06138 168C4.62138 168 3.51738 167.664 2.74938 166.992C1.99738 166.32 1.62138 165.2 1.62138 163.632V152.088L3.80538 151.512L3.99738 151.632V163.416C3.99738 164.008 4.07738 164.464 4.23738 164.784C4.41338 165.088 4.68538 165.304 5.05338 165.432C5.43738 165.56 5.95738 165.624 6.61338 165.624C6.96538 165.624 7.21338 165.696 7.35738 165.84C7.50138 165.968 7.57338 166.16 7.57338 166.416C7.57338 166.88 7.45338 167.264 7.21338 167.568C6.98938 167.856 6.60538 168 6.06138 168ZM14.9425 165.624C15.2945 165.624 15.5425 165.696 15.6865 165.84C15.8305 165.968 15.9025 166.16 15.9025 166.416C15.9025 166.864 15.7905 167.24 15.5665 167.544C15.3585 167.848 14.9745 168 14.4145 168C13.5665 168 12.7825 167.912 12.0625 167.736C11.3425 167.544 10.7505 167.256 10.2865 166.872C9.8705 167.256 9.3825 167.544 8.8225 167.736C8.2785 167.912 7.6305 168 6.8785 168H6.0625L6.6145 165.624H7.2625C7.6145 165.624 7.9505 165.592 8.2705 165.528C8.5905 165.464 8.8385 165.368 9.0145 165.24C9.3185 164.664 9.6545 163.488 10.0225 161.712L12.4225 161.136L12.6625 161.304C12.4705 162.12 12.2865 162.832 12.1105 163.44C11.9345 164.032 11.7425 164.56 11.5345 165.024C12.3025 165.424 13.4385 165.624 14.9425 165.624ZM9.0145 173.328L6.8305 171.816L8.1745 169.8L10.3345 171.288L9.0145 173.328ZM12.4465 173.328L10.2865 171.816L11.6305 169.8L13.7905 171.288L12.4465 173.328ZM14.9348 165.624C15.3828 165.624 15.7828 165.6 16.1348 165.552C16.4868 165.504 16.7908 165.4 17.0468 165.24C17.1588 164.76 17.2148 164.144 17.2148 163.392V152.088L19.3748 151.512L19.5908 151.632V163.2C19.5908 164.448 19.3828 165.424 18.9668 166.128C18.5668 166.816 17.9908 167.304 17.2388 167.592C16.4868 167.864 15.5348 168 14.3828 168L14.9348 165.624ZM27.0614 168C25.6214 168 24.5174 167.664 23.7494 166.992C22.9974 166.32 22.6214 165.2 22.6214 163.632V152.088L24.8054 151.512L24.9974 151.632V163.416C24.9974 164.008 25.0774 164.464 25.2374 164.784C25.4134 165.088 25.6854 165.304 26.0534 165.432C26.4374 165.56 26.9574 165.624 27.6134 165.624C27.9654 165.624 28.2134 165.696 28.3574 165.84C28.5014 165.968 28.5734 166.16 28.5734 166.416C28.5734 166.88 28.4534 167.264 28.2134 167.568C27.9894 167.856 27.6054 168 27.0614 168ZM35.9185 161.016C37.1185 161.624 38.0625 162.064 38.7505 162.336C39.4545 162.592 40.0865 162.736 40.6465 162.768L40.0465 165C38.2065 165.208 36.0625 165.736 33.6145 166.584C32.0465 167.112 30.7825 167.48 29.8225 167.688C28.8625 167.896 27.9425 168 27.0625 168L27.5905 165.624C28.4705 165.624 29.3105 165.56 30.1105 165.432C30.9265 165.288 32.0145 165.016 33.3745 164.616C34.6385 164.248 35.7185 163.968 36.6145 163.776C36.2305 163.6 35.7505 163.36 35.1745 163.056C34.2625 162.544 33.5025 162.192 32.8945 162C32.3025 161.792 31.7345 161.688 31.1905 161.688C30.7585 161.688 30.3345 161.728 29.9185 161.808C29.5025 161.888 29.0785 162 28.6465 162.144L28.5505 162.024L29.4145 159.888C29.7025 159.744 30.0385 159.632 30.4225 159.552C30.8065 159.456 31.1825 159.408 31.5505 159.408C32.0785 159.408 32.6465 159.528 33.2545 159.768C33.8785 159.992 34.7665 160.408 35.9185 161.016ZM64.9124 159.432C65.2804 160.28 65.5524 161.096 65.7284 161.88C65.9204 162.664 66.0164 163.32 66.0164 163.848C66.0164 164.536 65.8724 165.184 65.5844 165.792C65.3124 166.384 64.9044 166.848 64.3604 167.184C63.7684 167.552 62.8964 167.824 61.7444 168C60.5924 168.176 59.2404 168.264 57.6884 168.264H56.1284C53.4404 168.264 51.4084 167.912 50.0324 167.208C48.6724 166.488 47.9924 165.36 47.9924 163.824C47.9924 162.816 48.1204 161.888 48.3764 161.04L50.1284 160.368L50.3204 160.488C50.1764 161.272 50.1044 161.968 50.1044 162.576C50.1044 163.456 50.3444 164.136 50.8244 164.616C51.3204 165.096 52.0484 165.432 53.0084 165.624C53.9844 165.816 55.2724 165.912 56.8724 165.912H58.3844C59.5364 165.912 60.6164 165.856 61.6244 165.744C62.6484 165.616 63.4004 165.456 63.8804 165.264C63.8964 165.184 63.9044 165.048 63.9044 164.856C63.9044 164.376 63.8004 163.848 63.5924 163.272C63.4004 162.696 63.0884 161.936 62.6564 160.992L64.6724 159.432H64.9124ZM56.0084 158.736L53.8484 157.224L55.1684 155.208L57.3284 156.696L56.0084 158.736ZM59.3924 158.736L57.2324 157.224L58.5764 155.208L60.7364 156.696L59.3924 158.736ZM73.327 168C71.887 168 70.783 167.664 70.015 166.992C69.263 166.32 68.887 165.2 68.887 163.632V152.088L71.071 151.512L71.263 151.632V163.416C71.263 164.008 71.343 164.464 71.503 164.784C71.679 165.088 71.951 165.304 72.319 165.432C72.703 165.56 73.223 165.624 73.879 165.624C74.231 165.624 74.479 165.696 74.623 165.84C74.767 165.968 74.839 166.16 74.839 166.416C74.839 166.88 74.719 167.264 74.479 167.568C74.255 167.856 73.871 168 73.327 168ZM86.6001 165.624C87.2721 165.624 87.6081 165.888 87.6081 166.416C87.6081 166.896 87.4721 167.28 87.2001 167.568C86.9281 167.856 86.5441 168 86.0481 168C85.5361 168 85.0801 167.936 84.6801 167.808C84.2961 167.68 83.9441 167.472 83.6241 167.184C83.4161 167.552 83.1521 167.824 82.8321 168C82.5121 168.192 82.1201 168.288 81.6561 168.288C81.0321 168.288 80.3121 168.136 79.4961 167.832C78.6801 167.528 77.8881 167.104 77.1201 166.56C76.8001 166.96 76.4721 167.264 76.1361 167.472C75.8001 167.68 75.4161 167.824 74.9841 167.904C74.5521 167.968 74.0001 168 73.3281 168L73.9041 165.624C74.2561 165.624 74.5361 165.592 74.7441 165.528C74.9521 165.448 75.1361 165.32 75.2961 165.144C75.4721 164.968 75.6801 164.688 75.9201 164.304L76.3521 163.56C76.8001 162.792 77.1921 162.168 77.5281 161.688C77.8801 161.208 78.2881 160.8 78.7521 160.464C79.2161 160.112 79.7281 159.936 80.2881 159.936C80.8481 159.936 81.3361 160.096 81.7521 160.416C82.1681 160.72 82.5201 161.112 82.8081 161.592C83.1121 162.072 83.4721 162.736 83.8881 163.584C84.1761 164.176 84.4321 164.616 84.6561 164.904C84.8801 165.176 85.1361 165.368 85.4241 165.48C85.7121 165.576 86.1041 165.624 86.6001 165.624ZM81.2481 166.008C81.7601 166.008 82.1601 165.84 82.4481 165.504L82.3041 165.192C81.8561 164.152 81.4641 163.4 81.1281 162.936C80.8081 162.456 80.5041 162.216 80.2161 162.216C79.8961 162.216 79.5681 162.44 79.2321 162.888C78.8961 163.336 78.5281 163.96 78.1281 164.76C78.6881 165.144 79.2481 165.448 79.8081 165.672C80.3841 165.896 80.8641 166.008 81.2481 166.008ZM94.9816 165.624C95.3336 165.624 95.5816 165.696 95.7256 165.84C95.8696 165.968 95.9416 166.16 95.9416 166.416C95.9416 166.864 95.8296 167.24 95.6056 167.544C95.3976 167.848 95.0136 168 94.4536 168C93.6056 168 92.8216 167.912 92.1016 167.736C91.3816 167.544 90.7896 167.256 90.3256 166.872C89.9096 167.256 89.4216 167.544 88.8616 167.736C88.3176 167.912 87.6696 168 86.9176 168H86.1016L86.6536 165.624H87.3016C87.6536 165.624 87.9896 165.592 88.3096 165.528C88.6296 165.464 88.8776 165.368 89.0536 165.24C89.3576 164.664 89.6936 163.488 90.0616 161.712L92.4616 161.136L92.7016 161.304C92.5096 162.12 92.3256 162.832 92.1496 163.44C91.9736 164.032 91.7816 164.56 91.5736 165.024C92.3416 165.424 93.4776 165.624 94.9816 165.624ZM89.0536 173.328L86.8696 171.816L88.2136 169.8L90.3736 171.288L89.0536 173.328ZM92.4856 173.328L90.3256 171.816L91.6696 169.8L93.8296 171.288L92.4856 173.328ZM105.654 165.624C106.022 165.624 106.27 165.696 106.398 165.84C106.542 165.968 106.614 166.16 106.614 166.416C106.614 166.864 106.502 167.24 106.278 167.544C106.054 167.848 105.662 168 105.102 168H103.59C102.998 168 102.39 167.936 101.766 167.808C101.158 167.68 100.566 167.504 99.9899 167.28C98.7419 167.76 97.3179 168 95.7179 168H94.4219L94.9739 165.624H97.1339H97.4219C96.7179 164.84 96.3659 164.024 96.3659 163.176C96.3659 162.456 96.5499 161.744 96.9179 161.04C97.3019 160.32 97.7979 159.736 98.4059 159.288C99.0299 158.84 99.6779 158.616 100.35 158.616C100.942 158.616 101.494 158.816 102.006 159.216C102.534 159.6 102.95 160.096 103.254 160.704C103.558 161.296 103.71 161.888 103.71 162.48C103.71 163.664 103.342 164.688 102.606 165.552C103.038 165.6 103.486 165.624 103.95 165.624H105.654ZM98.2859 162.888C98.2859 163.304 98.4379 163.688 98.7419 164.04C99.0619 164.392 99.5179 164.696 100.11 164.952C100.622 164.696 101.022 164.384 101.31 164.016C101.614 163.632 101.766 163.224 101.766 162.792C101.766 162.488 101.678 162.192 101.502 161.904C101.326 161.616 101.102 161.384 100.83 161.208C100.574 161.016 100.318 160.92 100.062 160.92C99.7899 160.92 99.5099 161.016 99.2219 161.208C98.9499 161.4 98.7259 161.656 98.5499 161.976C98.3739 162.28 98.2859 162.584 98.2859 162.888ZM98.8379 156.192L96.6779 154.68L97.9979 152.664L100.158 154.152L98.8379 156.192ZM102.222 156.192L100.062 154.68L101.406 152.664L103.566 154.152L102.222 156.192ZM105.661 165.624H106.357C107.637 165.624 108.453 165.544 108.805 165.384C108.869 165.208 108.901 164.992 108.901 164.736C108.901 164.256 108.789 163.712 108.565 163.104C108.341 162.48 108.037 161.768 107.653 160.968L109.549 159.432H109.789C110.173 160.28 110.477 161.128 110.701 161.976C110.941 162.808 111.061 163.488 111.061 164.016C111.061 164.592 110.957 165.152 110.749 165.696C110.541 166.24 110.245 166.696 109.861 167.064C109.493 167.416 109.021 167.664 108.445 167.808C107.869 167.936 107.005 168 105.853 168H105.109L105.661 165.624ZM107.557 157.056L105.397 155.544L106.717 153.528L108.877 155.016L107.557 157.056ZM110.941 157.056L108.781 155.544L110.125 153.528L112.285 155.016L110.941 157.056ZM129.879 165.624C130.551 165.624 130.887 165.888 130.887 166.416C130.887 166.864 130.767 167.24 130.527 167.544C130.287 167.848 129.887 168 129.327 168C128.639 168 128.071 167.912 127.623 167.736C127.191 167.56 126.815 167.248 126.495 166.8C125.999 167.248 125.327 167.592 124.479 167.832C123.647 168.056 122.671 168.168 121.551 168.168C121.199 168.168 120.743 168.144 120.183 168.096C119.639 168.048 119.175 167.976 118.791 167.88L119.127 165.624L119.247 165.528C119.599 165.608 120.015 165.664 120.495 165.696C120.991 165.728 121.423 165.744 121.791 165.744C122.495 165.744 123.191 165.688 123.879 165.576C124.567 165.448 125.119 165.272 125.535 165.048L125.511 165.024L124.959 163.944C124.767 163.56 124.391 162.84 123.831 161.784C123.287 160.728 122.831 159.88 122.463 159.24L124.215 157.32H124.431C124.863 158.312 125.335 159.392 125.847 160.56C126.359 161.728 126.775 162.656 127.095 163.344C127.399 164 127.671 164.488 127.911 164.808C128.167 165.128 128.439 165.344 128.727 165.456C129.015 165.568 129.399 165.624 129.879 165.624ZM138.223 161.016C139.423 161.624 140.367 162.064 141.055 162.336C141.759 162.592 142.391 162.736 142.951 162.768L142.351 165C140.511 165.208 138.367 165.736 135.919 166.584C134.351 167.112 133.087 167.48 132.127 167.688C131.167 167.896 130.247 168 129.367 168L129.895 165.624C130.775 165.624 131.615 165.56 132.415 165.432C133.231 165.288 134.319 165.016 135.679 164.616C136.943 164.248 138.023 163.968 138.919 163.776C138.535 163.6 138.055 163.36 137.479 163.056C136.567 162.544 135.807 162.192 135.199 162C134.607 161.792 134.039 161.688 133.495 161.688C133.063 161.688 132.639 161.728 132.223 161.808C131.807 161.888 131.383 162 130.951 162.144L130.855 162.024L131.719 159.888C132.007 159.744 132.343 159.632 132.727 159.552C133.111 159.456 133.487 159.408 133.855 159.408C134.383 159.408 134.951 159.528 135.559 159.768C136.183 159.992 137.071 160.408 138.223 161.016ZM136.087 173.4L133.855 171.84L135.247 169.8L137.479 171.312L136.087 173.4ZM154.488 165.624C154.872 165.624 155.136 165.696 155.28 165.84C155.424 165.968 155.496 166.16 155.496 166.416C155.496 166.864 155.376 167.24 155.136 167.544C154.912 167.848 154.52 168 153.96 168H152.304C152 168.8 151.536 169.512 150.912 170.136C150.288 170.776 149.488 171.28 148.512 171.648C147.536 172.032 146.4 172.232 145.104 172.248L143.904 170.472L144.048 170.256C145.536 170.224 146.8 170.016 147.84 169.632C148.88 169.248 149.648 168.704 150.144 168H149.712C148.192 168 147.056 167.72 146.304 167.16C145.552 166.584 145.176 165.776 145.176 164.736C145.176 163.984 145.344 163.24 145.68 162.504C146.016 161.752 146.464 161.136 147.024 160.656C147.6 160.176 148.216 159.936 148.872 159.936C149.608 159.936 150.264 160.192 150.84 160.704C151.416 161.216 151.864 161.912 152.184 162.792C152.52 163.656 152.696 164.6 152.712 165.624H154.488ZM147.024 164.4C147.024 164.816 147.24 165.128 147.672 165.336C148.104 165.528 148.816 165.624 149.808 165.624H150.816C150.816 165.032 150.712 164.472 150.504 163.944C150.296 163.416 150.032 163 149.712 162.696C149.408 162.376 149.096 162.216 148.776 162.216C148.488 162.216 148.208 162.312 147.936 162.504C147.664 162.696 147.44 162.96 147.264 163.296C147.104 163.632 147.024 164 147.024 164.4ZM154.529 165.624H155.225C156.505 165.624 157.321 165.544 157.673 165.384C157.737 165.208 157.769 164.992 157.769 164.736C157.769 164.256 157.657 163.712 157.433 163.104C157.209 162.48 156.905 161.768 156.521 160.968L158.417 159.432H158.657C159.041 160.28 159.345 161.128 159.569 161.976C159.809 162.808 159.929 163.488 159.929 164.016C159.929 164.592 159.825 165.152 159.617 165.696C159.409 166.24 159.113 166.696 158.729 167.064C158.361 167.416 157.889 167.664 157.313 167.808C156.737 167.936 155.873 168 154.721 168H153.977L154.529 165.624ZM156.425 157.056L154.265 155.544L155.585 153.528L157.745 155.016L156.425 157.056ZM159.809 157.056L157.649 155.544L158.993 153.528L161.153 155.016L159.809 157.056ZM176.419 156.528C176.419 158.368 175.971 160.048 175.075 161.568C175.923 162.768 176.347 163.848 176.347 164.808C176.347 165.528 176.195 166.128 175.891 166.608C175.587 167.072 175.091 167.424 174.403 167.664C173.731 167.888 172.835 168 171.715 168H168.427L168.547 165.72C169.443 165.144 170.243 164.552 170.947 163.944C171.651 163.32 172.259 162.632 172.771 161.88C172.051 161.176 171.219 160.456 170.275 159.72C169.331 158.984 168.395 158.312 167.467 157.704L168.283 155.328L168.427 155.256C170.779 157.128 172.547 158.696 173.731 159.96C174.019 159.144 174.163 158.248 174.163 157.272C174.163 156.504 174.091 155.664 173.947 154.752C173.803 153.824 173.659 153.104 173.515 152.592L175.627 151.512L175.819 151.56C175.963 152.36 176.099 153.224 176.227 154.152C176.355 155.08 176.419 155.872 176.419 156.528ZM174.739 165.12C174.739 164.592 174.467 163.952 173.923 163.2C173.187 164.064 172.291 164.872 171.235 165.624H171.955C172.739 165.624 173.339 165.584 173.755 165.504C174.187 165.424 174.515 165.296 174.739 165.12Z" fill="#BDBDBD"/>
<g clip-path="url(#clip0_1_1051)">
<path d="M89 70.4767L76.0695 77.7147L78.957 63.1801L68.0762 53.1187L82.7923 51.3734L89 37.9167L95.2077 51.3734L109.924 53.1187L99.043 63.1801L101.931 77.7147L89 70.4767ZM89 66.2747L96.7862 70.6326L95.0463 61.8821L101.597 55.8229L92.7363 54.7724L89 46.6709L85.2637 54.7742L76.4032 55.8229L82.9537 61.8821L81.2138 70.6326L89 66.2747Z" fill="#BDBDBD"/>
</g>
<defs>
<clipPath id="clip0_1_1051">
<rect width="44" height="44" fill="white" transform="translate(67 37)"/>
</clipPath>
</defs>
</svg>
