<svg width="45" height="45" viewBox="0 0 45 45" fill="none" xmlns="http://www.w3.org/2000/svg">
<circle cx="22.5" cy="22.5" r="22" fill="white" stroke="#828282"/>
<g clip-path="url(#clip0_1_1372)">
<path d="M23.1202 28.023L18.9212 25.733C18.373 26.319 17.6612 26.7266 16.8783 26.9028C16.0954 27.0791 15.2776 27.0157 14.5311 26.721C13.7847 26.4263 13.1442 25.9139 12.6928 25.2504C12.2414 24.5869 12 23.803 12 23.0005C12 22.198 12.2414 21.414 12.6928 20.7505C13.1442 20.087 13.7847 19.5746 14.5311 19.2799C15.2776 18.9852 16.0954 18.9219 16.8783 19.0981C17.6612 19.2743 18.373 19.6819 18.9212 20.268L23.1212 17.978C22.8828 17.034 22.9968 16.0355 23.4418 15.1697C23.8869 14.3038 24.6325 13.6299 25.5389 13.2745C26.4452 12.919 27.4501 12.9063 28.3652 13.2387C29.2803 13.5711 30.0427 14.2259 30.5095 15.0802C30.9764 15.9346 31.1156 16.9298 30.9011 17.8795C30.6866 18.8292 30.1332 19.668 29.3444 20.2388C28.5557 20.8095 27.5859 21.0731 26.6168 20.98C25.6477 20.8868 24.7458 20.4435 24.0802 19.733L19.8802 22.023C20.0414 22.6643 20.0414 23.3356 19.8802 23.977L24.0792 26.267C24.7448 25.5564 25.6467 25.1131 26.6158 25.02C27.5849 24.9268 28.5547 25.1904 29.3434 25.7611C30.1322 26.3319 30.6856 27.1708 30.9001 28.1204C31.1146 29.0701 30.9754 30.0654 30.5085 30.9197C30.0417 31.774 29.2793 32.4288 28.3642 32.7612C27.4491 33.0937 26.4442 33.0809 25.5379 32.7255C24.6315 32.37 23.8859 31.6961 23.4408 30.8303C22.9958 29.9644 22.8818 28.9659 23.1202 28.022V28.023ZM16.0002 25C16.5306 25 17.0393 24.7892 17.4144 24.4142C17.7895 24.0391 18.0002 23.5304 18.0002 23C18.0002 22.4695 17.7895 21.9608 17.4144 21.5857C17.0393 21.2107 16.5306 21 16.0002 21C15.4698 21 14.9611 21.2107 14.586 21.5857C14.2109 21.9608 14.0002 22.4695 14.0002 23C14.0002 23.5304 14.2109 24.0391 14.586 24.4142C14.9611 24.7892 15.4698 25 16.0002 25ZM27.0002 19C27.5306 19 28.0393 18.7892 28.4144 18.4142C28.7895 18.0391 29.0002 17.5304 29.0002 17C29.0002 16.4695 28.7895 15.9608 28.4144 15.5857C28.0393 15.2107 27.5306 15 27.0002 15C26.4698 15 25.9611 15.2107 25.586 15.5857C25.2109 15.9608 25.0002 16.4695 25.0002 17C25.0002 17.5304 25.2109 18.0391 25.586 18.4142C25.9611 18.7892 26.4698 19 27.0002 19ZM27.0002 31C27.5306 31 28.0393 30.7892 28.4144 30.4142C28.7895 30.0391 29.0002 29.5304 29.0002 29C29.0002 28.4695 28.7895 27.9608 28.4144 27.5857C28.0393 27.2107 27.5306 27 27.0002 27C26.4698 27 25.9611 27.2107 25.586 27.5857C25.2109 27.9608 25.0002 28.4695 25.0002 29C25.0002 29.5304 25.2109 30.0391 25.586 30.4142C25.9611 30.7892 26.4698 31 27.0002 31Z" fill="#828282"/>
</g>
<defs>
<clipPath id="clip0_1_1372">
<rect width="24" height="24" fill="white" transform="translate(10 11)"/>
</clipPath>
</defs>
</svg>
