<svg width="83" height="83" viewBox="0 0 83 83" fill="none" xmlns="http://www.w3.org/2000/svg">
<circle cx="41.5" cy="41.5" r="41.5" fill="#5B8E19" fill-opacity="0.1"/>
<g clip-path="url(#clip0_195_7261)">
<path d="M31.166 54.4165C31.166 51.6759 32.2547 49.0476 34.1926 47.1097C36.1305 45.1719 38.7588 44.0832 41.4993 44.0832C44.2399 44.0832 46.8682 45.1719 48.8061 47.1097C50.744 49.0476 51.8327 51.6759 51.8327 54.4165H49.2493C49.2493 52.3611 48.4328 50.3898 46.9794 48.9364C45.526 47.483 43.5548 46.6665 41.4993 46.6665C39.4439 46.6665 37.4727 47.483 36.0193 48.9364C34.5659 50.3898 33.7493 52.3611 33.7493 54.4165H31.166ZM41.4993 42.7915C37.2175 42.7915 33.7493 39.3234 33.7493 35.0415C33.7493 30.7596 37.2175 27.2915 41.4993 27.2915C45.7812 27.2915 49.2493 30.7596 49.2493 35.0415C49.2493 39.3234 45.7812 42.7915 41.4993 42.7915ZM41.4993 40.2082C44.3539 40.2082 46.666 37.8961 46.666 35.0415C46.666 32.1869 44.3539 29.8748 41.4993 29.8748C38.6448 29.8748 36.3327 32.1869 36.3327 35.0415C36.3327 37.8961 38.6448 40.2082 41.4993 40.2082Z" fill="#5B8E19"/>
</g>
<defs>
<clipPath id="clip0_195_7261">
<rect width="31" height="31" fill="white" transform="translate(26 26)"/>
</clipPath>
</defs>
</svg>
