<svg width="80" height="60" viewBox="0 0 80 60" fill="none" xmlns="http://www.w3.org/2000/svg">
<path d="M6.11085 53.348C5.05485 53.348 4.16085 53.198 3.42885 52.898C2.69685 52.598 2.14485 52.178 1.77285 51.638C1.41285 51.11 1.23285 50.498 1.23285 49.802C1.23285 49.442 1.25685 49.088 1.30485 48.74C1.36485 48.38 1.43685 48.068 1.52085 47.804L2.65485 47.408L2.81685 47.48C2.68485 48.068 2.61885 48.614 2.61885 49.118C2.61885 50.03 2.90685 50.726 3.48285 51.206C4.05885 51.698 5.04285 51.944 6.43485 51.944C7.33485 51.944 8.16285 51.872 8.91885 51.728C9.68685 51.584 10.3169 51.386 10.8089 51.134C11.3009 50.882 11.6009 50.606 11.7089 50.306C11.7089 50.114 11.6069 49.94 11.4029 49.784C11.2109 49.628 10.9049 49.472 10.4849 49.316C10.0649 49.16 9.48885 48.986 8.75685 48.794L9.17085 47.48L10.5569 47.876C11.3369 48.116 11.9909 48.296 12.5189 48.416C13.0469 48.536 13.5629 48.596 14.0669 48.596C14.3549 48.596 14.5469 48.638 14.6429 48.722C14.7389 48.806 14.7869 48.932 14.7869 49.1C14.7869 49.328 14.7029 49.538 14.5349 49.73C14.3789 49.91 14.0969 50 13.6889 50H12.9869C12.9029 50.708 12.5609 51.308 11.9609 51.8C11.3609 52.304 10.5569 52.688 9.54885 52.952C8.55285 53.216 7.40685 53.348 6.11085 53.348ZM5.01285 57.11L3.55485 56.084L4.43685 54.734L5.89485 55.724L5.01285 57.11ZM7.58685 57.11L6.12885 56.084L7.04685 54.734L8.50485 55.724L7.58685 57.11ZM22.9099 48.596C23.1979 48.596 23.3899 48.638 23.4859 48.722C23.5939 48.806 23.6479 48.926 23.6479 49.082C23.6479 49.31 23.5699 49.52 23.4139 49.712C23.2579 49.904 22.9759 50 22.5679 50C21.6199 50 20.7679 49.556 20.0119 48.668C19.8079 49.04 19.4899 49.322 19.0579 49.514C18.6259 49.706 18.0859 49.838 17.4379 49.91C16.8019 49.97 15.9619 50 14.9179 50H13.7119L14.0539 48.596H15.9259C17.0539 48.596 17.8519 48.53 18.3199 48.398C18.7879 48.266 19.0999 48.086 19.2559 47.858C18.9559 47.378 18.3859 46.736 17.5459 45.932C16.7059 45.128 15.8419 44.354 14.9539 43.61L14.8819 43.502L15.2599 41.666L21.1639 38.318L21.2899 38.372L20.8219 40.136L16.2139 42.71C17.1259 43.562 17.8759 44.288 18.4639 44.888C19.0519 45.488 19.6219 46.088 20.1739 46.688C20.6179 47.192 20.9659 47.57 21.2179 47.822C21.4699 48.062 21.7279 48.254 21.9919 48.398C22.2679 48.53 22.5739 48.596 22.9099 48.596ZM28.6193 48.596C28.8953 48.596 29.0813 48.638 29.1773 48.722C29.2853 48.806 29.3393 48.926 29.3393 49.082C29.3393 49.31 29.2613 49.52 29.1053 49.712C28.9493 49.904 28.6673 50 28.2593 50C27.8033 50 27.3413 49.934 26.8733 49.802C26.4173 49.658 26.0093 49.43 25.6493 49.118C25.3493 49.418 24.9773 49.64 24.5333 49.784C24.1013 49.928 23.5733 50 22.9493 50H22.5713L22.9313 48.596H23.3273C24.0353 48.596 24.5393 48.482 24.8393 48.254C24.9713 48.062 25.0973 47.762 25.2173 47.354C25.3493 46.934 25.5113 46.322 25.7033 45.518L27.0893 45.176L27.2693 45.284C27.0053 46.484 26.7173 47.402 26.4053 48.038C26.6573 48.206 26.9573 48.344 27.3053 48.452C27.6533 48.548 28.0913 48.596 28.6193 48.596ZM26.6213 43.16L25.1453 42.134L26.0633 40.766L27.5393 41.774L26.6213 43.16ZM28.6266 48.596H28.7886C29.7486 48.596 30.3786 48.524 30.6786 48.38C30.7626 48.2 30.8046 47.984 30.8046 47.732C30.8046 47.36 30.7266 46.964 30.5706 46.544C30.4146 46.124 30.1746 45.566 29.8506 44.87L31.0746 43.952H31.2366C31.5366 44.576 31.7646 45.176 31.9206 45.752C32.0886 46.328 32.1726 46.808 32.1726 47.192C32.1726 47.588 32.0886 47.99 31.9206 48.398C31.7646 48.794 31.5546 49.124 31.2906 49.388C31.0506 49.616 30.7266 49.778 30.3186 49.874C29.9106 49.958 29.2866 50 28.4466 50H28.2666L28.6266 48.596ZM30.9306 53.762L29.4546 52.736L30.3726 51.386L31.8486 52.376L30.9306 53.762ZM50.057 48.596C50.345 48.596 50.537 48.638 50.633 48.722C50.741 48.806 50.795 48.926 50.795 49.082C50.795 49.31 50.717 49.52 50.561 49.712C50.405 49.904 50.123 50 49.715 50C48.911 50 48.305 49.802 47.897 49.406C47.657 50.774 47.099 51.77 46.223 52.394C45.359 53.03 44.171 53.348 42.659 53.348C41.747 53.348 40.967 53.192 40.319 52.88C39.683 52.568 39.203 52.13 38.879 51.566C38.555 51.014 38.393 50.372 38.393 49.64C38.393 49.28 38.417 48.92 38.465 48.56C38.525 48.188 38.597 47.876 38.681 47.624L39.815 47.228L39.959 47.3C39.839 47.9 39.779 48.452 39.779 48.956C39.779 49.592 39.875 50.126 40.067 50.558C40.259 51.002 40.583 51.344 41.039 51.584C41.507 51.824 42.137 51.944 42.929 51.944C43.685 51.944 44.327 51.842 44.855 51.638C45.395 51.446 45.851 51.122 46.223 50.666C46.343 50.402 46.439 50.036 46.511 49.568C46.595 49.1 46.637 48.536 46.637 47.876V38.048L47.915 37.724L48.041 37.778V46.616C48.041 47.204 48.119 47.642 48.275 47.93C48.443 48.206 48.665 48.386 48.941 48.47C49.217 48.554 49.589 48.596 50.057 48.596ZM50.0719 48.596H50.5939C51.5539 48.596 52.1839 48.524 52.4839 48.38C52.5679 48.176 52.6099 47.936 52.6099 47.66C52.6099 47.288 52.5319 46.88 52.3759 46.436C52.2319 45.992 52.0219 45.47 51.7459 44.87L52.8799 43.952H53.0419C53.3299 44.612 53.5579 45.23 53.7259 45.806C53.8939 46.37 53.9779 46.832 53.9779 47.192C53.9779 47.588 53.8999 47.99 53.7439 48.398C53.5879 48.806 53.3719 49.136 53.0959 49.388C52.8559 49.616 52.5319 49.778 52.1239 49.874C51.7159 49.958 51.0919 50 50.2519 50H49.7119L50.0719 48.596ZM51.3319 53.762L49.8739 52.736L50.7559 51.386L52.2139 52.376L51.3319 53.762ZM53.9059 53.762L52.4479 52.736L53.3659 51.386L54.8239 52.376L53.9059 53.762ZM63.6466 48.596C63.9346 48.596 64.1326 48.638 64.2406 48.722C64.3486 48.806 64.4026 48.926 64.4026 49.082C64.4026 49.31 64.3186 49.52 64.1506 49.712C63.9946 49.904 63.7126 50 63.3046 50H61.9726C61.7686 50.588 61.4386 51.116 60.9826 51.584C60.5386 52.052 59.9566 52.43 59.2366 52.718C58.5166 53.006 57.6766 53.162 56.7166 53.186L55.9606 52.142L56.0506 51.998C57.1666 51.95 58.1206 51.752 58.9126 51.404C59.7166 51.068 60.2986 50.6 60.6586 50H60.1186C59.0266 50 58.2046 49.802 57.6526 49.406C57.1126 48.998 56.8426 48.428 56.8426 47.696C56.8426 47.144 56.9626 46.598 57.2026 46.058C57.4426 45.506 57.7666 45.062 58.1746 44.726C58.5826 44.378 59.0206 44.204 59.4886 44.204C60.0166 44.204 60.4906 44.402 60.9106 44.798C61.3306 45.182 61.6546 45.704 61.8826 46.364C62.1106 47.024 62.2246 47.738 62.2246 48.506V48.596H63.6466ZM61.0726 48.596V48.488C61.0726 47.984 60.9946 47.51 60.8386 47.066C60.6826 46.622 60.4726 46.268 60.2086 46.004C59.9566 45.74 59.6986 45.608 59.4346 45.608C59.2066 45.608 58.9786 45.692 58.7506 45.86C58.5346 46.016 58.3546 46.244 58.2106 46.544C58.0666 46.832 57.9946 47.162 57.9946 47.534C57.9946 47.894 58.1746 48.164 58.5346 48.344C58.8946 48.512 59.4826 48.596 60.2986 48.596H61.0726ZM74.6034 48.596C74.8794 48.596 75.0654 48.638 75.1614 48.722C75.2574 48.806 75.3054 48.926 75.3054 49.082C75.3054 49.31 75.2334 49.52 75.0894 49.712C74.9454 49.904 74.6694 50 74.2614 50C73.4694 50 72.8034 49.94 72.2634 49.82C71.7234 49.688 71.2854 49.496 70.9494 49.244C70.6254 48.992 70.3554 48.674 70.1394 48.29C69.5274 48.47 68.8434 48.692 68.0874 48.956C66.9234 49.352 66.0054 49.628 65.3334 49.784C64.6614 49.928 63.9894 50 63.3174 50L63.6594 48.596C64.2474 48.596 64.8294 48.542 65.4054 48.434C65.9934 48.314 66.7614 48.104 67.7094 47.804C68.8254 47.432 69.7734 47.174 70.5534 47.03C70.2054 46.874 69.7914 46.664 69.3114 46.4C68.5914 46.004 68.0094 45.728 67.5654 45.572C67.1334 45.416 66.7194 45.338 66.3234 45.338C65.7594 45.338 65.1594 45.458 64.5234 45.698L64.4694 45.626L65.0094 44.312C65.2254 44.204 65.4774 44.12 65.7654 44.06C66.0534 43.988 66.3294 43.952 66.5934 43.952C66.9654 43.952 67.3794 44.042 67.8354 44.222C68.3034 44.402 68.9454 44.702 69.7614 45.122C70.6374 45.59 71.3334 45.92 71.8494 46.112C72.3654 46.304 72.8394 46.412 73.2714 46.436L72.9474 47.732C72.3834 47.804 71.9334 47.87 71.5974 47.93C71.8614 48.182 72.2214 48.356 72.6774 48.452C73.1454 48.548 73.7874 48.596 74.6034 48.596ZM74.5934 48.596H75.1154C76.0754 48.596 76.7054 48.524 77.0054 48.38C77.0894 48.176 77.1314 47.936 77.1314 47.66C77.1314 47.288 77.0534 46.88 76.8974 46.436C76.7534 45.992 76.5434 45.47 76.2674 44.87L77.4014 43.952H77.5634C77.8514 44.612 78.0794 45.23 78.2474 45.806C78.4154 46.37 78.4994 46.832 78.4994 47.192C78.4994 47.588 78.4214 47.99 78.2654 48.398C78.1094 48.806 77.8934 49.136 77.6174 49.388C77.3774 49.616 77.0534 49.778 76.6454 49.874C76.2374 49.958 75.6134 50 74.7734 50H74.2334L74.5934 48.596ZM76.0514 41.936L74.5934 40.91L75.4754 39.542L76.9334 40.55L76.0514 41.936ZM78.5534 41.936L77.0954 40.91L78.0134 39.542L79.4714 40.55L78.5534 41.936Z" fill="#4F4F4F"/>
<g clip-path="url(#clip0_1_1748)">
<path d="M27.5 25H52.5V27.5H27.5V25ZM30 15H32.5V23.75H30V15ZM36.25 15H38.75V23.75H36.25V15ZM41.25 15H43.75V23.75H41.25V15ZM47.5 15H50V23.75H47.5V15ZM27.5 8.75L40 2.5L52.5 8.75V13.75H27.5V8.75ZM40 10C40.3315 10 40.6495 9.8683 40.8839 9.63388C41.1183 9.39946 41.25 9.08152 41.25 8.75C41.25 8.41848 41.1183 8.10054 40.8839 7.86612C40.6495 7.6317 40.3315 7.5 40 7.5C39.6685 7.5 39.3505 7.6317 39.1161 7.86612C38.8817 8.10054 38.75 8.41848 38.75 8.75C38.75 9.08152 38.8817 9.39946 39.1161 9.63388C39.3505 9.8683 39.6685 10 40 10Z" fill="#4F4F4F"/>
</g>
<defs>
<clipPath id="clip0_1_1748">
<rect width="30" height="30" fill="white" transform="translate(25)"/>
</clipPath>
</defs>
</svg>
