<svg width="302" height="96" viewBox="0 0 302 96" fill="none" xmlns="http://www.w3.org/2000/svg">
<g filter="url(#filter0_d_1_1798)">
<rect x="8" y="4" width="286" height="80" rx="8" fill="white"/>
</g>
<path d="M150.726 16.071C150.502 16.1979 150.472 16.3249 150.467 17.1729V17.9651L148.019 18.6151C145.891 19.1839 145.546 19.2905 145.429 19.4073C145.338 19.4987 145.287 19.6003 145.287 19.6967C145.287 19.778 145.851 21.9464 146.536 24.5057L147.786 29.1674L146.709 30.244L145.627 31.3256L145.48 31.153C145.399 31.0616 145.201 30.9194 145.043 30.8432L144.754 30.701H141.936C139.178 30.701 139.112 30.701 138.884 30.8077C138.548 30.9651 138.305 31.2038 138.142 31.5288L138 31.8182V36.3378C138 40.8268 138 40.8573 138.107 41.0909C138.264 41.426 138.503 41.6698 138.828 41.8323L139.117 41.9745H141.936H144.754L145.043 41.8323C145.368 41.6749 145.612 41.421 145.754 41.101C145.805 40.9792 145.861 40.8827 145.876 40.8827C145.886 40.8827 146.084 41.0401 146.308 41.2381C146.531 41.4311 146.836 41.6495 146.978 41.7155C147.593 42.0151 147.146 41.9999 155.713 41.9999C164.259 41.9999 163.782 42.0151 163.914 41.7206C164 41.5276 164 16.4721 163.914 16.2792C163.782 15.9846 164.127 15.9999 157.211 15.9999C152.026 16.0049 150.827 16.0151 150.726 16.071ZM162.959 28.9999V40.9842H161.151C159.45 40.9842 159.343 40.9792 159.379 40.8928C159.511 40.5526 159.511 39.994 159.379 39.6589C159.354 39.5928 159.399 39.5725 159.648 39.5471C160.273 39.4811 160.801 39.1053 161.06 38.5315C161.177 38.2725 161.202 38.1456 161.202 37.8358C161.202 37.5971 161.171 37.3839 161.121 37.2671L161.034 37.0792L161.309 36.9522C161.654 36.7948 161.969 36.4799 162.141 36.1143C162.253 35.8756 162.273 35.7589 162.273 35.3983C162.273 35.0124 162.253 34.926 162.111 34.6315L161.943 34.2964V31.0159V27.7354L161.827 27.6034C161.568 27.2987 161.09 27.4206 160.979 27.8217C160.948 27.9385 160.928 29.0608 160.928 30.8534V33.7022L160.75 33.6819C160.654 33.6717 160.572 33.6565 160.572 33.6514C160.572 33.6514 160.608 33.5346 160.648 33.3975C160.75 33.0624 160.745 32.8339 160.623 32.4378C160.491 32.0163 160.136 31.6049 159.724 31.4018C159.47 31.2799 159.364 31.2596 158.841 31.2444L158.241 31.2241L158.531 31.0362C159.333 30.5131 159.77 29.5432 159.618 28.6342C159.435 27.5831 158.638 26.7858 157.586 26.603C156.017 26.3339 154.56 27.7913 154.824 29.3655C154.941 30.0612 155.337 30.6604 155.921 31.0413L156.22 31.2342H154.87H153.514V26.41C153.514 21.86 153.519 21.5807 153.605 21.5553C154.413 21.2811 155.032 20.6819 155.245 19.971L155.306 19.7577H157.221H159.135L159.196 19.971C159.409 20.6819 160.029 21.2811 160.841 21.5553C160.918 21.5807 160.928 21.662 160.928 22.3323C160.928 23.4241 161.019 23.6424 161.471 23.6424C161.659 23.6424 161.72 23.6171 161.821 23.5003C161.943 23.3581 161.943 23.353 161.943 22.1393V20.9155L161.796 20.7682C161.689 20.6616 161.598 20.621 161.476 20.621C160.75 20.621 160.196 20.0827 160.09 19.2854C160.07 19.1432 160.009 18.9909 159.938 18.9046L159.821 18.7674H157.221H154.621L154.504 18.9046C154.433 18.9909 154.372 19.1432 154.352 19.2854C154.245 20.0827 153.691 20.621 152.965 20.621C152.843 20.621 152.752 20.6616 152.645 20.7682L152.498 20.9155V26.0749V31.2342H151.99H151.482V24.1249V17.0155H157.221H162.959V28.9999ZM150.467 19.9557V20.9155L150.259 20.951C150.147 20.9714 149.995 21.0374 149.918 21.1034C149.786 21.2202 149.781 21.2354 149.781 21.7991C149.781 22.3272 149.771 22.3881 149.644 22.6014C149.456 22.9214 149.273 23.0839 148.918 23.2362C148.573 23.3885 148.441 23.5256 148.436 23.7389C148.436 23.8405 150.142 30.2897 150.396 31.1428C150.421 31.2241 150.375 31.2342 149.913 31.2342H149.405L149.355 31.0413C149.329 30.9397 149.213 30.4878 149.096 30.0409C148.984 29.594 148.867 29.1776 148.842 29.1116C148.791 28.9897 146.475 20.3772 146.445 20.1944C146.43 20.1081 146.607 20.0522 148.004 19.6764C149.334 19.3159 150.401 19.0214 150.457 19.001C150.462 18.996 150.467 19.4276 150.467 19.9557ZM150.462 25.3538V27.451L150.005 25.7753L149.543 24.0995L149.664 24.0284C149.73 23.9878 149.929 23.7999 150.111 23.612C150.294 23.4241 150.446 23.2717 150.457 23.2667C150.462 23.2616 150.467 24.2061 150.462 25.3538ZM157.825 27.7253C158.125 27.8827 158.302 28.0553 158.465 28.3499C158.592 28.5784 158.612 28.6749 158.612 28.9999C158.612 29.3249 158.592 29.4214 158.465 29.6499C158.191 30.1577 157.795 30.3913 157.221 30.3913C156.647 30.3913 156.251 30.1577 155.977 29.6499C155.85 29.4214 155.829 29.3249 155.829 28.9999C155.829 28.6038 155.885 28.4311 156.139 28.101C156.271 27.9182 156.632 27.6897 156.88 27.6237C157.124 27.5628 157.602 27.6135 157.825 27.7253ZM148.334 31.1581C148.512 31.8538 148.563 31.9909 148.695 32.1077L148.842 32.2499H153.986C158.78 32.2499 159.135 32.2549 159.298 32.3413C159.562 32.4733 159.684 32.6714 159.684 32.9608C159.684 33.2503 159.562 33.4483 159.298 33.5803C159.14 33.6616 158.896 33.6717 156.418 33.6717H153.707L153.534 33.8444C153.412 33.9663 153.361 34.0628 153.361 34.1796C153.361 34.2964 153.412 34.3878 153.534 34.5147L153.707 34.6874H157.231C160.654 34.6874 160.755 34.6924 160.918 34.7889C161.395 35.0784 161.395 35.7182 160.918 36.0077C160.755 36.1042 160.654 36.1092 157.231 36.1092H153.707L153.534 36.2819C153.3 36.5155 153.3 36.7186 153.534 36.9522L153.707 37.1249H156.672C159.938 37.1249 159.846 37.1147 160.085 37.4448C160.232 37.6428 160.232 38.0288 160.085 38.2268C159.846 38.5569 159.938 38.5467 156.672 38.5467H153.707L153.534 38.7194C153.407 38.8413 153.361 38.9378 153.361 39.0546C153.361 39.1714 153.407 39.2678 153.534 39.3897L153.707 39.5624H155.794C158.094 39.5624 158.125 39.5674 158.338 39.8721C158.602 40.2428 158.419 40.8116 157.993 40.9335C157.861 40.9741 156.276 40.9842 152.777 40.9741C147.801 40.9589 147.75 40.9589 147.521 40.8522C147.395 40.7964 146.978 40.4764 146.597 40.1413L145.896 39.5421V36.0331V32.5292L146.998 31.4272C147.603 30.8178 148.105 30.3303 148.111 30.3354C148.116 30.3405 148.217 30.7112 148.334 31.1581ZM141.428 34.662C141.428 37.846 141.428 37.851 141.677 37.9881C141.804 38.0542 142.068 38.0542 142.195 37.9881C142.443 37.851 142.443 37.846 142.443 34.662V31.6913H143.459C144.556 31.6913 144.688 31.7167 144.81 31.9503C144.916 32.1635 144.916 40.512 144.81 40.7253C144.673 40.9842 144.657 40.9842 141.936 40.9842C139.214 40.9842 139.198 40.9842 139.061 40.7253C138.96 40.5221 138.96 32.1381 139.061 31.9503C139.193 31.7167 139.3 31.6964 140.402 31.6913H141.428V34.662Z" fill="#4F4F4F"/>
<path d="M161.232 25.2014C160.917 25.3639 160.882 25.8006 161.166 26.0494C161.278 26.1459 161.339 26.1611 161.506 26.1408C162.075 26.0647 162.1 25.242 161.537 25.1607C161.44 25.1506 161.303 25.1658 161.232 25.2014Z" fill="#4F4F4F"/>
<path d="M141.687 39.0241C141.245 39.2678 141.433 39.9686 141.936 39.9686C142.195 39.9686 142.443 39.7198 142.443 39.4659C142.443 39.085 142.022 38.8362 141.687 39.0241Z" fill="#4F4F4F"/>
<path d="M101.823 58.204C102.387 58.204 102.897 58.402 103.353 58.798C103.809 59.194 104.163 59.704 104.415 60.328C104.679 60.952 104.811 61.576 104.811 62.2C104.811 62.848 104.733 63.31 104.577 63.586C104.433 63.85 104.187 63.982 103.839 63.982C103.575 63.982 103.167 63.958 102.615 63.91C102.111 63.85 101.649 63.82 101.229 63.82C100.941 63.82 100.641 63.856 100.329 63.928C100.017 64 99.7834 64.084 99.6274 64.18C99.5554 64.42 99.5194 64.726 99.5194 65.098C99.5194 65.554 99.5554 66.064 99.6274 66.628C99.7114 67.192 99.8314 67.924 99.9874 68.824L100.185 69.94L98.9974 70.516L98.8534 70.426C98.7934 69.97 98.7334 69.592 98.6734 69.292C98.6254 68.992 98.5894 68.764 98.5654 68.608C98.4574 67.96 98.3614 67.348 98.2774 66.772C98.2054 66.196 98.1694 65.752 98.1694 65.44C98.1694 64.924 98.2834 64.438 98.5114 63.982C98.7514 63.526 99.1234 63.154 99.6274 62.866C100.143 62.566 100.785 62.416 101.553 62.416C102.057 62.416 102.717 62.476 103.533 62.596C103.521 62.104 103.425 61.63 103.245 61.174C103.065 60.706 102.825 60.328 102.525 60.04C102.237 59.752 101.925 59.608 101.589 59.608C101.289 59.608 101.007 59.764 100.743 60.076C100.479 60.388 100.293 60.856 100.185 61.48L99.4114 61.606L99.2314 61.516C99.2674 60.808 99.4114 60.208 99.6634 59.716C99.9154 59.212 100.233 58.834 100.617 58.582C101.001 58.33 101.403 58.204 101.823 58.204ZM115.625 62.596C115.901 62.596 116.093 62.638 116.201 62.722C116.309 62.806 116.363 62.926 116.363 63.082C116.363 63.31 116.279 63.52 116.111 63.712C115.955 63.904 115.673 64 115.265 64C114.413 64 113.717 63.838 113.177 63.514C112.649 63.178 112.319 62.608 112.187 61.804C111.539 62.596 110.753 63.172 109.829 63.532C108.917 63.88 107.915 64.054 106.823 64.054L106.211 62.776L106.283 62.668C107.159 62.656 107.975 62.554 108.731 62.362C109.487 62.17 110.147 61.882 110.711 61.498C110.243 60.634 109.649 59.8 108.929 58.996C108.209 58.18 107.273 57.232 106.121 56.152L106.661 54.748L106.787 54.694C107.819 55.642 108.767 56.686 109.631 57.826C110.495 58.954 111.143 59.938 111.575 60.778C111.803 60.538 111.989 60.292 112.133 60.04V52.048L113.429 51.724L113.537 51.778V60.868C113.537 61.336 113.603 61.696 113.735 61.948C113.879 62.188 114.095 62.356 114.383 62.452C114.683 62.548 115.097 62.596 115.625 62.596ZM121.715 62.596C121.991 62.596 122.177 62.638 122.273 62.722C122.381 62.806 122.435 62.926 122.435 63.082C122.435 63.31 122.357 63.52 122.201 63.712C122.045 63.904 121.763 64 121.355 64C120.059 64 119.075 63.712 118.403 63.136C118.115 63.436 117.767 63.658 117.359 63.802C116.951 63.934 116.465 64 115.901 64H115.289L115.649 62.596H116.189C116.477 62.596 116.741 62.566 116.981 62.506C117.221 62.446 117.413 62.362 117.557 62.254C117.677 62.062 117.803 61.75 117.935 61.318C118.079 60.886 118.241 60.286 118.421 59.518L119.807 59.176L119.987 59.284C119.855 59.896 119.717 60.424 119.573 60.868C119.441 61.312 119.297 61.702 119.141 62.038C119.405 62.206 119.735 62.344 120.131 62.452C120.527 62.548 121.055 62.596 121.715 62.596ZM118.187 57.124L116.729 56.098L117.611 54.73L119.069 55.738L118.187 57.124ZM120.689 57.124L119.231 56.098L120.149 54.73L121.607 55.738L120.689 57.124ZM133.522 57.952C134.134 59.404 134.44 60.484 134.44 61.192C134.44 62.176 134.158 62.89 133.594 63.334C133.03 63.778 132.226 64 131.182 64C130.45 64 129.772 63.844 129.148 63.532C128.74 63.844 128.188 64 127.492 64C126.916 64 126.382 63.928 125.89 63.784C125.398 63.628 124.996 63.436 124.684 63.208C124.336 63.484 123.898 63.688 123.37 63.82C122.842 63.94 122.17 64 121.354 64L121.696 62.596C122.848 62.596 123.61 62.476 123.982 62.236C124.09 62.08 124.204 61.852 124.324 61.552C124.444 61.24 124.582 60.832 124.738 60.328L126.268 60.112L126.34 60.202C126.028 61.09 125.758 61.75 125.53 62.182C125.818 62.29 126.16 62.386 126.556 62.47C126.952 62.554 127.312 62.596 127.636 62.596C127.804 62.596 127.972 62.578 128.14 62.542C128.308 62.506 128.44 62.458 128.536 62.398C128.644 62.254 128.764 62.014 128.896 61.678C129.028 61.33 129.184 60.88 129.364 60.328L130.804 60.112L130.876 60.184L130.642 60.832C130.534 61.12 130.426 61.402 130.318 61.678C130.222 61.954 130.126 62.188 130.03 62.38C130.462 62.524 130.888 62.596 131.308 62.596C132.1 62.596 132.646 62.524 132.946 62.38C133.03 62.176 133.072 61.936 133.072 61.66C133.072 61.288 132.994 60.88 132.838 60.436C132.694 59.992 132.484 59.47 132.208 58.87L133.414 57.934L133.522 57.952ZM142.415 55.63C142.415 56.95 142.097 58.192 141.461 59.356C142.085 60.244 142.397 61.048 142.397 61.768C142.397 62.296 142.289 62.722 142.073 63.046C141.857 63.37 141.509 63.61 141.029 63.766C140.549 63.922 139.907 64 139.103 64H136.691L136.745 62.686C137.405 62.218 138.011 61.732 138.563 61.228C139.127 60.712 139.607 60.154 140.003 59.554C139.475 58.99 138.863 58.432 138.167 57.88C137.471 57.316 136.715 56.746 135.899 56.17L136.439 54.748L136.547 54.694C137.447 55.402 138.233 56.056 138.905 56.656C139.577 57.244 140.153 57.808 140.633 58.348C140.921 57.616 141.065 56.866 141.065 56.098C141.065 55.462 141.005 54.808 140.885 54.136C140.765 53.452 140.645 52.87 140.525 52.39L141.785 51.724L141.911 51.76C142.031 52.372 142.145 53.044 142.253 53.776C142.361 54.496 142.415 55.114 142.415 55.63ZM141.389 62.2C141.401 61.696 141.179 61.114 140.723 60.454C140.147 61.198 139.391 61.912 138.455 62.596H139.121C139.769 62.596 140.261 62.566 140.597 62.506C140.945 62.434 141.209 62.332 141.389 62.2ZM144.903 64.09L144.795 64.036V52.048L146.109 51.706L146.199 51.778L146.181 63.82L144.903 64.09ZM160.369 62.596C160.645 62.596 160.837 62.638 160.945 62.722C161.065 62.806 161.125 62.926 161.125 63.082C161.125 63.31 161.041 63.52 160.873 63.712C160.705 63.904 160.417 64 160.009 64C159.565 64 159.193 63.934 158.893 63.802C158.605 63.658 158.341 63.406 158.101 63.046C157.441 63.742 156.211 64.09 154.411 64.09C154.171 64.09 153.835 64.072 153.403 64.036C152.983 64 152.623 63.946 152.323 63.874L152.521 62.56L152.611 62.488C152.875 62.548 153.205 62.596 153.601 62.632C153.997 62.656 154.321 62.668 154.573 62.668C155.149 62.668 155.713 62.614 156.265 62.506C156.817 62.386 157.237 62.224 157.525 62.02L157.471 61.93C157.207 61.402 156.823 60.658 156.319 59.698C155.815 58.738 155.407 57.988 155.095 57.448L156.157 56.332H156.301C156.637 57.076 157.003 57.892 157.399 58.78C157.807 59.656 158.131 60.352 158.371 60.868C158.611 61.36 158.821 61.726 159.001 61.966C159.181 62.206 159.373 62.374 159.577 62.47C159.781 62.554 160.045 62.596 160.369 62.596ZM166.091 62.596C166.367 62.596 166.553 62.638 166.649 62.722C166.757 62.806 166.811 62.926 166.811 63.082C166.811 63.31 166.733 63.52 166.577 63.712C166.421 63.904 166.139 64 165.731 64C165.275 64 164.813 63.934 164.345 63.802C163.889 63.658 163.481 63.43 163.121 63.118C162.821 63.418 162.449 63.64 162.005 63.784C161.573 63.928 161.045 64 160.421 64H160.043L160.403 62.596H160.799C161.507 62.596 162.011 62.482 162.311 62.254C162.443 62.062 162.569 61.762 162.689 61.354C162.821 60.934 162.983 60.322 163.175 59.518L164.561 59.176L164.741 59.284C164.477 60.484 164.189 61.402 163.877 62.038C164.129 62.206 164.429 62.344 164.777 62.452C165.125 62.548 165.563 62.596 166.091 62.596ZM164.093 57.16L162.617 56.134L163.535 54.766L165.011 55.774L164.093 57.16ZM174.252 62.29L173.82 63.55C173.052 63.694 172.05 63.808 170.814 63.892C169.578 63.964 167.886 64 165.738 64L166.08 62.596C166.992 62.596 167.658 62.59 168.078 62.578C167.838 62.218 167.646 61.84 167.502 61.444C167.37 61.048 167.304 60.658 167.304 60.274C167.304 59.662 167.454 59.134 167.754 58.69C168.054 58.234 168.468 57.886 168.996 57.646C169.524 57.406 170.118 57.286 170.778 57.286C171.198 57.286 171.63 57.346 172.074 57.466C172.518 57.574 172.89 57.712 173.19 57.88L173.028 59.158L172.956 59.194C172.608 59.05 172.248 58.936 171.876 58.852C171.504 58.756 171.15 58.708 170.814 58.708C170.202 58.708 169.728 58.846 169.392 59.122C169.056 59.398 168.888 59.794 168.888 60.31C168.888 60.67 168.978 61.048 169.158 61.444C169.338 61.84 169.596 62.206 169.932 62.542C171.624 62.482 173.034 62.374 174.162 62.218L174.252 62.29ZM185.173 62.488C184.261 63.184 183.559 63.754 183.067 64.198C182.587 64.642 182.203 65.116 181.915 65.62C181.627 66.124 181.483 66.682 181.483 67.294C181.483 67.894 181.669 68.404 182.041 68.824C182.425 69.256 182.965 69.58 183.661 69.796C184.369 70.012 185.209 70.12 186.181 70.12C186.781 70.12 187.393 70.072 188.017 69.976C188.653 69.892 189.241 69.766 189.781 69.598L189.907 69.688L189.493 70.912C188.461 71.296 187.219 71.488 185.767 71.488C184.627 71.488 183.631 71.332 182.779 71.02C181.927 70.708 181.267 70.252 180.799 69.652C180.331 69.064 180.097 68.356 180.097 67.528C180.097 66.676 180.283 65.902 180.655 65.206C181.039 64.51 181.525 63.892 182.113 63.352C182.701 62.812 183.421 62.236 184.273 61.624C183.865 61.204 183.469 60.838 183.085 60.526C182.713 60.202 182.287 59.902 181.807 59.626L181.735 59.482L182.365 57.952C182.809 57.736 183.307 57.574 183.859 57.466C184.411 57.346 184.981 57.286 185.569 57.286C186.901 57.286 188.029 57.592 188.953 58.204L189.025 58.348L188.611 59.698C187.951 60.286 187.153 60.946 186.217 61.678C186.733 61.966 187.345 62.194 188.053 62.362C188.761 62.518 189.487 62.596 190.231 62.596C190.507 62.596 190.699 62.644 190.807 62.74C190.915 62.824 190.969 62.944 190.969 63.1C190.969 63.328 190.891 63.538 190.735 63.73C190.579 63.91 190.297 64 189.889 64C188.977 64 188.113 63.868 187.297 63.604C186.493 63.328 185.785 62.956 185.173 62.488ZM183.121 59.086C183.421 59.254 183.733 59.482 184.057 59.77C184.381 60.058 184.783 60.442 185.263 60.922C186.271 60.214 187.027 59.59 187.531 59.05C186.859 58.81 186.163 58.69 185.443 58.69C184.663 58.69 183.889 58.822 183.121 59.086ZM193.923 55.792C194.463 55.792 194.943 55.996 195.363 56.404C195.783 56.8 196.101 57.334 196.317 58.006C196.545 58.666 196.659 59.368 196.659 60.112C196.659 60.988 196.575 61.69 196.407 62.218C196.251 62.734 195.969 63.13 195.561 63.406C195.249 63.574 194.865 63.7 194.409 63.784C193.965 63.868 193.395 63.928 192.699 63.964C192.015 63.988 191.079 64 189.891 64L190.251 62.596C191.847 62.596 193.023 62.566 193.779 62.506C194.547 62.434 195.069 62.332 195.345 62.2C195.405 62.008 195.447 61.642 195.471 61.102C194.823 61.258 194.193 61.336 193.581 61.336C192.813 61.336 192.237 61.15 191.853 60.778C191.469 60.406 191.277 59.89 191.277 59.23C191.277 58.69 191.397 58.156 191.637 57.628C191.889 57.088 192.219 56.65 192.627 56.314C193.035 55.966 193.467 55.792 193.923 55.792ZM192.429 59.05C192.429 59.65 192.909 59.95 193.869 59.95C194.469 59.95 195.009 59.896 195.489 59.788C195.465 59.356 195.369 58.942 195.201 58.546C195.045 58.138 194.847 57.814 194.607 57.574C194.367 57.322 194.115 57.196 193.851 57.196C193.623 57.196 193.395 57.286 193.167 57.466C192.951 57.634 192.771 57.862 192.627 58.15C192.495 58.426 192.429 58.726 192.429 59.05ZM194.193 53.83L192.717 52.804L193.635 51.436L195.111 52.444L194.193 53.83ZM200.466 64.09C200.214 64.09 199.872 64.072 199.44 64.036C199.02 64 198.66 63.946 198.36 63.874L198.558 62.56L198.648 62.488C198.9 62.548 199.224 62.596 199.62 62.632C200.028 62.656 200.364 62.668 200.628 62.668C201.276 62.668 201.888 62.608 202.464 62.488C203.052 62.356 203.43 62.188 203.598 61.984C203.49 61.324 203.184 60.622 202.68 59.878C202.188 59.122 201.564 58.384 200.808 57.664L201.564 56.332H201.69C203.718 58.456 204.732 60.172 204.732 61.48C204.732 63.22 203.31 64.09 200.466 64.09Z" fill="#4F4F4F"/>
<defs>
<filter id="filter0_d_1_1798" x="0" y="0" width="302" height="96" filterUnits="userSpaceOnUse" color-interpolation-filters="sRGB">
<feFlood flood-opacity="0" result="BackgroundImageFix"/>
<feColorMatrix in="SourceAlpha" type="matrix" values="0 0 0 0 0 0 0 0 0 0 0 0 0 0 0 0 0 0 127 0" result="hardAlpha"/>
<feOffset dy="4"/>
<feGaussianBlur stdDeviation="4"/>
<feComposite in2="hardAlpha" operator="out"/>
<feColorMatrix type="matrix" values="0 0 0 0 0 0 0 0 0 0 0 0 0 0 0 0 0 0 0.1 0"/>
<feBlend mode="normal" in2="BackgroundImageFix" result="effect1_dropShadow_1_1798"/>
<feBlend mode="normal" in="SourceGraphic" in2="effect1_dropShadow_1_1798" result="shape"/>
</filter>
</defs>
</svg>
